<?xml version="1.0" encoding="iso-8859-1"?>
<!-- Generator: Adobe Illustrator 16.0.0, SVG Export Plug-In . SVG Version: 6.00 Build 0)  -->
<!DOCTYPE svg PUBLIC "-//W3C//DTD SVG 1.1//EN" "http://www.w3.org/Graphics/SVG/1.1/DTD/svg11.dtd">
<svg version="1.1" id="Capa_1" xmlns="http://www.w3.org/2000/svg" xmlns:xlink="http://www.w3.org/1999/xlink" x="0px" y="0px"
	 width="503.59px" height="503.59px" viewBox="0 0 503.59 503.59" style="enable-background:new 0 0 503.59 503.59;"
	 xml:space="preserve">
<g>
	<path d="M51.024,419.22c3.156,93.512,113.995,86.685,117.676,79.847c3.682-6.827,14.707-11.561,14.181-6.827
		c-0.526,4.724,5.25,9.084,5.25,9.084s163.902,11.408,163.902-16.964c0-28.371-23.113-24.69-14.182-28.371
		c8.932-3.682,22.587-24.165,22.587-24.165s-1.578,48.854-2.63,52.011c-7.487,22.453,70.925,22.061,70.925,5.775
		s-19.44-21.019-19.44-21.019s5.25-192.272-2.104-200.679c-7.354-8.404-3.156-17.862-3.156-17.862
		c74.598-51.484,40.976-112.426,40.976-128.185C445.028,106.115,452.382,0,434.519,0c-17.862,0-51.484,47.277-60.941,65.14
		c-1.167-0.994-2.515-1.836-4.007-2.534c-17.403-8.157-54.831,2.534-54.831,2.534c-12.604-10.509-92.46-57.786-106.115-44.131
		c-19.967,18.915,43.079,122.926,43.079,122.926c-9.458,88.262,46.225,106.125,46.225,106.125s-3.155,31.518-56.734,63.036
		c-68.295,32.569-81.951,75.648-83.002,92.459c-1.052,16.812,11.561,63.036-44.131,45.184
		c-55.683-17.863-38.872-63.036-38.872-63.036C53.128,395.572,51.024,419.22,51.024,419.22z"/>
</g>
<g>
</g>
<g>
</g>
<g>
</g>
<g>
</g>
<g>
</g>
<g>
</g>
<g>
</g>
<g>
</g>
<g>
</g>
<g>
</g>
<g>
</g>
<g>
</g>
<g>
</g>
<g>
</g>
<g>
</g>
</svg>
